<?xml version="1.0" encoding="UTF-8"?>
<svg xmlns="http://www.w3.org/2000/svg" xmlns:xlink="http://www.w3.org/1999/xlink" width="64px" height="64px" viewBox="0 0 64 64" version="1.1">
<g id="surface1">
<path style=" stroke:none;fill-rule:nonzero;fill:rgb(0%,0%,0%);fill-opacity:1;" d="M 32 5.332031 C 18.882812 5.285156 7.675781 14.785156 5.574219 27.734375 C 3.476562 40.683594 11.109375 53.238281 23.574219 57.332031 C 24.90625 57.546875 25.332031 56.71875 25.332031 56 L 25.332031 51.492188 C 17.945312 53.09375 16.375 48 16.375 48 C 15.875 46.34375 14.796875 44.921875 13.332031 44 C 10.90625 42.347656 13.519531 42.398438 13.519531 42.398438 C 15.214844 42.621094 16.71875 43.601562 17.601562 45.066406 C 19.140625 47.808594 22.605469 48.796875 25.359375 47.28125 C 25.480469 45.929688 26.078125 44.664062 27.039062 43.707031 C 21.332031 43.121094 14.988281 40.828125 14.988281 30.667969 C 14.910156 28.003906 15.863281 25.414062 17.652344 23.441406 C 16.839844 21.144531 16.9375 18.625 17.921875 16.398438 C 17.921875 16.398438 20.160156 15.679688 25.253906 19.066406 C 29.621094 17.894531 34.21875 17.894531 38.585938 19.066406 C 43.679688 15.625 45.921875 16.398438 45.921875 16.398438 C 46.902344 18.625 47 21.144531 46.1875 23.441406 C 47.976562 25.414062 48.929688 28.003906 48.851562 30.667969 C 48.851562 40.851562 42.613281 43.09375 36.667969 43.761719 C 37.960938 45.0625 38.632812 46.859375 38.507812 48.691406 L 38.507812 56 C 38.507812 56.71875 38.933594 57.574219 40.292969 57.332031 C 52.730469 53.246094 60.363281 40.730469 58.300781 27.800781 C 56.238281 14.871094 45.09375 5.351562 32 5.332031 Z M 32 5.332031 "/>
</g>
</svg>
