<?xml version="1.0" encoding="UTF-8"?>
<svg xmlns="http://www.w3.org/2000/svg" xmlns:xlink="http://www.w3.org/1999/xlink" width="64px" height="64px" viewBox="0 0 64 64" version="1.1">
<g id="surface1">
<path style=" stroke:none;fill-rule:evenodd;fill:rgb(0%,66.666667%,92.54902%);fill-opacity:1;" d="M 64 11.648438 C 61.648438 12.71875 59.117188 13.441406 56.460938 13.765625 C 59.171875 12.101562 61.253906 9.460938 62.234375 6.320312 C 59.695312 7.859375 56.890625 8.980469 53.890625 9.582031 C 51.503906 6.964844 48.085938 5.332031 44.308594 5.332031 C 37.0625 5.332031 31.183594 11.363281 31.183594 18.796875 C 31.183594 19.851562 31.296875 20.875 31.519531 21.863281 C 20.609375 21.300781 10.933594 15.945312 4.457031 7.792969 C 3.324219 9.785156 2.679688 12.101562 2.679688 14.566406 C 2.679688 19.234375 4.996094 23.359375 8.519531 25.773438 C 6.371094 25.707031 4.34375 25.09375 2.570312 24.09375 L 2.570312 24.257812 C 2.570312 30.785156 7.097656 36.226562 13.105469 37.460938 C 12.007812 37.777344 10.84375 37.933594 9.648438 37.933594 C 8.800781 37.933594 7.976562 37.851562 7.175781 37.695312 C 8.847656 43.042969 13.691406 46.9375 19.441406 47.039062 C 14.945312 50.652344 9.28125 52.808594 3.132812 52.808594 C 2.074219 52.808594 1.027344 52.746094 0 52.621094 C 5.8125 56.4375 12.714844 58.667969 20.128906 58.667969 C 44.28125 58.667969 57.484375 38.152344 57.484375 20.359375 C 57.484375 19.773438 57.476562 19.191406 57.453125 18.617188 C 60.019531 16.714844 62.246094 14.347656 64 11.648438 "/>
</g>
</svg>
