<?xml version="1.0" encoding="UTF-8"?>
<svg xmlns="http://www.w3.org/2000/svg" xmlns:xlink="http://www.w3.org/1999/xlink" width="64px" height="64px" viewBox="0 0 64 64" version="1.1">
<g id="surface1">
<path style=" stroke:none;fill-rule:nonzero;fill:rgb(17.254902%,71.764706%,25.882353%);fill-opacity:1;" d="M 0 64 L 5.503906 47.488281 C 2.710938 42.792969 1.101562 37.308594 1.101562 31.449219 C 1.101562 14.078125 15.183594 0 32.550781 0 C 49.921875 0 64 14.078125 64 31.449219 C 64 48.816406 49.921875 62.898438 32.550781 62.898438 C 27.265625 62.898438 22.289062 61.585938 17.921875 59.285156 Z M 0 64 "/>
<path style=" stroke:none;fill-rule:nonzero;fill:rgb(100%,100%,100%);fill-opacity:1;" d="M 52.617188 41.914062 C 51.164062 39.171875 45.808594 36.03125 45.808594 36.03125 C 44.597656 35.339844 43.136719 35.265625 42.445312 36.496094 C 42.445312 36.496094 40.703125 38.582031 40.261719 38.882812 C 38.238281 40.25 36.367188 40.199219 34.476562 38.308594 L 30.085938 33.914062 L 25.691406 29.523438 C 23.800781 27.632812 23.75 25.761719 25.117188 23.738281 C 25.417969 23.296875 27.503906 21.554688 27.503906 21.554688 C 28.734375 20.863281 28.660156 19.402344 27.96875 18.191406 C 27.96875 18.191406 24.828125 12.835938 22.085938 11.382812 C 20.917969 10.765625 19.484375 10.984375 18.550781 11.917969 L 16.609375 13.855469 C 10.457031 20.011719 13.488281 26.957031 19.640625 33.109375 L 30.890625 44.359375 C 37.042969 50.511719 43.992188 53.542969 50.144531 47.390625 L 52.085938 45.449219 C 53.019531 44.515625 53.234375 43.082031 52.617188 41.914062 Z M 52.617188 41.914062 "/>
</g>
</svg>
