<?xml version="1.0" encoding="UTF-8"?>
<svg xmlns="http://www.w3.org/2000/svg" xmlns:xlink="http://www.w3.org/1999/xlink" width="64px" height="64px" viewBox="0 0 64 64" version="1.1">
<g id="surface1">
<path style=" stroke:none;fill-rule:evenodd;fill:rgb(80.784314%,7.45098%,7.058824%);fill-opacity:1;" d="M 25.390625 40.359375 L 25.390625 22.25 L 42.683594 31.335938 Z M 63.359375 19.113281 C 63.359375 19.113281 62.734375 14.671875 60.816406 12.714844 C 58.382812 10.148438 55.652344 10.136719 54.402344 9.984375 C 45.449219 9.332031 32.015625 9.332031 32.015625 9.332031 L 31.984375 9.332031 C 31.984375 9.332031 18.550781 9.332031 9.597656 9.984375 C 8.34375 10.136719 5.617188 10.148438 3.183594 12.714844 C 1.265625 14.671875 0.640625 19.113281 0.640625 19.113281 C 0.640625 19.113281 0 24.328125 0 29.542969 L 0 34.433594 C 0 39.652344 0.640625 44.867188 0.640625 44.867188 C 0.640625 44.867188 1.265625 49.308594 3.183594 51.261719 C 5.617188 53.832031 8.816406 53.75 10.238281 54.019531 C 15.359375 54.511719 32 54.667969 32 54.667969 C 32 54.667969 45.449219 54.648438 54.402344 53.992188 C 55.652344 53.84375 58.382812 53.832031 60.816406 51.261719 C 62.734375 49.308594 63.359375 44.867188 63.359375 44.867188 C 63.359375 44.867188 64 39.652344 64 34.433594 L 64 29.542969 C 64 24.328125 63.359375 19.113281 63.359375 19.113281 Z M 63.359375 19.113281 "/>
</g>
</svg>
